<?xml version="1.0" standalone="no"?>
<!DOCTYPE svg PUBLIC "-//W3C//DTD SVG 20010904//EN"
 "http://www.w3.org/TR/2001/REC-SVG-20010904/DTD/svg10.dtd">
<svg version="1.0" xmlns="http://www.w3.org/2000/svg"
 width="499.000000pt" height="500.000000pt" viewBox="0 0 499.000000 500.000000"
 preserveAspectRatio="xMidYMid meet">

<g transform="translate(0.000000,500.000000) scale(0.100000,-0.100000)"
fill="#000000" stroke="none">
<path d="M2275 4976 c-25 -25 -25 -27 -25 -202 0 -156 -2 -175 -16 -170 -8 3
-61 16 -117 28 -138 30 -447 33 -577 5 -276 -59 -558 -203 -856 -437 -105 -82
-122 -106 -110 -152 3 -13 65 -75 137 -138 121 -105 130 -115 113 -127 -11 -7
-62 -41 -114 -76 -114 -74 -276 -228 -356 -338 -186 -252 -293 -553 -343 -967
-12 -93 -4 -123 36 -141 14 -7 89 -11 190 -11 146 0 164 -2 159 -16 -3 -8 -16
-61 -28 -117 -32 -148 -32 -438 0 -584 59 -274 192 -534 431 -847 41 -54 85
-103 97 -108 44 -20 70 -1 191 138 100 114 120 132 128 118 123 -208 296 -400
463 -513 231 -156 536 -260 891 -305 177 -23 181 -18 181 218 l0 169 53 -7
c202 -25 269 -28 452 -23 141 4 228 12 296 26 285 58 557 201 761 401 79 76
88 89 88 122 0 33 -9 45 -126 155 l-126 119 118 79 c146 96 320 267 411 400
176 260 275 566 308 947 6 74 5 78 -19 103 -25 25 -26 25 -197 25 -148 0 -170
2 -165 15 3 8 15 66 28 128 29 148 32 416 5 550 -55 272 -193 553 -417 846
-89 118 -114 141 -149 141 -33 0 -63 -28 -212 -197 -58 -66 -65 -71 -77 -55
-7 9 -41 60 -75 112 -112 172 -306 353 -495 459 -209 119 -532 212 -849 245
-58 6 -65 5 -88 -18z m361 -181 c236 -49 479 -152 635 -269 156 -118 308 -300
405 -485 74 -142 97 -138 264 49 68 77 127 140 130 140 8 -1 118 -154 177
-248 75 -119 166 -310 197 -412 77 -257 75 -537 -4 -804 -26 -85 -28 -102 -17
-125 21 -45 48 -51 233 -51 l170 0 -8 -77 c-21 -183 -81 -396 -159 -560 -124
-259 -351 -492 -619 -632 -83 -44 -100 -56 -105 -81 -9 -42 6 -62 145 -194 69
-65 126 -122 128 -126 2 -4 -28 -34 -65 -66 -354 -300 -791 -394 -1373 -294
-174 29 -180 22 -180 -218 l0 -174 -52 7 c-240 31 -516 120 -689 221 -217 127
-410 336 -528 572 -44 87 -69 108 -116 96 -14 -3 -77 -66 -151 -150 l-126
-144 -61 82 c-192 262 -312 514 -352 742 -33 191 -15 441 45 645 31 102 29
127 -12 155 -18 13 -54 16 -201 16 l-179 0 7 55 c36 294 156 614 299 806 119
157 297 306 491 409 44 23 83 48 87 54 4 6 8 26 8 44 0 26 -8 41 -37 66 -21
19 -85 75 -143 126 -58 50 -106 95 -107 98 -5 12 185 146 319 224 375 221 722
268 1130 153 107 -31 139 -31 164 -4 17 19 19 41 22 206 l3 185 55 -7 c30 -3
107 -17 170 -30z"/>
<path d="M2642 3899 c-67 -12 -185 -60 -249 -102 -67 -44 -174 -153 -207 -208
-42 -74 -16 -100 62 -60 20 10 76 31 124 46 77 24 100 27 185 23 153 -7 293
-73 293 -138 0 -16 -23 -79 -51 -140 -27 -62 -48 -119 -45 -126 6 -16 398
-214 424 -214 14 0 105 102 142 160 17 26 79 50 129 50 93 0 168 -48 194 -125
12 -35 23 -45 93 -82 43 -23 90 -42 102 -43 35 0 143 112 182 189 34 68 64
189 54 216 -4 9 -42 34 -85 56 -74 37 -84 39 -167 39 -132 0 -200 39 -256 147
-14 29 -48 48 -253 148 -293 143 -360 165 -508 170 -60 2 -134 0 -163 -6z
m338 -88 c36 -12 166 -72 290 -132 223 -109 225 -111 255 -161 59 -100 155
-148 294 -148 60 0 87 -6 130 -25 l54 -25 -6 -45 c-9 -62 -57 -153 -115 -215
l-48 -53 -54 29 c-43 23 -61 41 -88 87 -64 111 -196 162 -325 126 -39 -11
-103 -66 -167 -147 l-35 -44 -166 82 -167 82 46 96 c78 163 65 211 -78 286
-142 75 -305 85 -475 31 -40 -13 98 104 164 139 106 55 157 66 301 63 98 -3
139 -8 190 -26z"/>
<path d="M968 3299 c-206 -30 -304 -188 -268 -431 22 -155 93 -340 170 -443
158 -213 383 -286 660 -215 46 12 143 30 215 41 142 21 492 38 483 23 -3 -5
-48 -79 -100 -164 -52 -85 -114 -186 -137 -225 -23 -38 -86 -142 -140 -230
-302 -494 -313 -514 -313 -550 0 -62 22 -80 213 -175 191 -95 227 -104 278
-74 35 21 28 8 203 348 159 307 529 1019 534 1024 1 2 40 -4 86 -13 126 -26
297 -85 469 -162 239 -109 363 -142 483 -129 77 8 179 55 227 106 67 71 118
215 106 304 -5 38 -4 42 26 56 41 19 63 67 70 148 l5 63 -29 6 c-27 5 -29 8
-29 54 0 27 -5 49 -10 49 -13 0 -30 -43 -30 -77 0 -21 -3 -24 -22 -19 -13 3
-29 6 -36 6 -10 0 -13 13 -10 48 2 37 0 47 -12 47 -10 0 -17 -14 -20 -45 -5
-42 -7 -45 -37 -48 -31 -3 -31 -4 -38 -72 -8 -75 -1 -95 47 -146 23 -25 28
-36 20 -50 -5 -11 -12 -41 -16 -67 -3 -27 -14 -68 -24 -90 -79 -178 -258 -197
-555 -61 -222 102 -444 180 -566 200 -46 7 -49 16 -23 59 10 17 65 120 122
230 56 110 107 205 112 212 18 23 5 58 -23 61 -26 3 -33 -10 -165 -267 l-139
-271 -31 6 c-18 3 -100 13 -183 22 l-151 17 48 80 c27 44 106 175 177 290 153
252 155 254 148 270 -6 17 -29 26 -45 19 -16 -6 -15 -5 -222 -349 -93 -154
-176 -288 -184 -297 -9 -11 -23 -15 -46 -11 -46 7 -414 -15 -536 -33 -58 -8
-162 -28 -231 -45 -144 -33 -181 -35 -262 -14 -189 49 -311 189 -385 440 -38
130 -46 200 -32 272 15 72 64 125 130 143 66 18 226 6 338 -24 142 -39 172
-34 172 31 0 23 -7 37 -23 47 -32 22 -197 63 -297 76 -93 11 -91 11 -172 -1z
m3201 -725 l34 -5 -6 -49 c-8 -65 -22 -89 -62 -106 -18 -7 -35 -19 -38 -26 -3
-8 -22 4 -51 34 -43 44 -46 50 -46 101 0 29 3 57 6 60 7 6 94 1 163 -9z
m-1632 -309 c81 -9 149 -18 151 -20 2 -2 -19 -45 -46 -97 -27 -51 -96 -183
-152 -293 -57 -110 -124 -240 -150 -290 -367 -703 -340 -655 -371 -655 -16 0
-99 36 -191 82 -125 64 -164 88 -166 104 -3 24 15 55 416 714 56 91 142 234
192 318 l91 152 40 0 c22 0 106 -7 186 -15z"/>
<path d="M4082 2514 c4 -21 22 -23 26 -1 2 10 -3 17 -13 17 -10 0 -15 -6 -13
-16z"/>
</g>
</svg>
