<svg width="72" height="72" viewBox="0 0 72 72" fill="none" xmlns="http://www.w3.org/2000/svg">
<rect width="72" height="72" rx="36" fill="#ABD2FF"/>
<path d="M36 58.75C42.7655 58.75 48.25 53.2655 48.25 46.5C48.25 39.7345 42.7655 34.25 36 34.25C29.2345 34.25 23.75 39.7345 23.75 46.5C23.75 53.2655 29.2345 58.75 36 58.75Z" fill="#FFCB3F"/>
<path d="M50 25.5359C50 26.5384 49.5701 27.4927 48.8193 28.1571L37.1597 38.4739C36.4976 39.0598 35.5025 39.0598 34.8403 38.4739L23.1807 28.1571C22.4299 27.4927 22 26.5384 22 25.5358V16.75C22 15.7835 22.7835 15 23.75 15H48.25C49.2165 15 50 15.7835 50 16.75V25.5359Z" fill="#157DFE"/>
</svg>
